<?xml version="1.0" encoding="UTF-8"?>
<svg id="uuid-c9c6681d-de2f-4c20-b833-b1d541fa3fb3" data-name="Capa 2" xmlns="http://www.w3.org/2000/svg" xmlns:xlink="http://www.w3.org/1999/xlink" viewBox="0 0 149.86 126">
  <defs>
    <clipPath id="uuid-1425e2e7-d6d3-4d2a-af8b-7c56d1fbe401">
      <path d="M15.79,15.27v91.17h124.94V15.27H15.79ZM131.85,97.3H58.48c-21.86,0-39.57-17.72-39.57-39.57h0c0-21.86,17.72-39.57,39.57-39.57h73.37v79.15Z" fill="none"/>
    </clipPath>
    <filter id="uuid-2f31c7a2-7419-4e53-b9f1-5433137f4fb7" data-name="drop-shadow-1" x="16.15" y="18.15" width="120" height="88.39" filterUnits="userSpaceOnUse">
      <feOffset dx="1.63" dy="4.68"/>
      <feGaussianBlur result="uuid-949b38aa-1b46-45d8-b4b3-46be0800698c" stdDeviation="1.22"/>
      <feFlood flood-color="#000" flood-opacity=".16"/>
      <feComposite in2="uuid-949b38aa-1b46-45d8-b4b3-46be0800698c" operator="in"/>
      <feComposite in="SourceGraphic"/>
    </filter>
  </defs>
  <g id="uuid-4f12eaa5-f845-4fa0-bc0f-5ce8bae08482" data-name="Capa 6">
    <g>
      <rect width="149.79" height="126" transform="translate(149.79 126) rotate(180)" fill="none" opacity=".3"/>
      <g>
        <polygon points="149.86 97.3 131.97 116.04 131.97 73.87 149.86 73.87 149.86 97.3" fill="#2d7c67"/>
        <path d="M58.48,18.15h91.38v79.15H58.48c-21.84,0-39.57-17.73-39.57-39.57h0c0-21.84,17.73-39.57,39.57-39.57Z" fill="#419a82"/>
        <g id="uuid-d6b5c158-b3bb-45c8-a8f3-2f739b022cc2" data-name="uuid-3c10e511-6f83-41a9-b480-d19a3eb3493e">
          <g>
            <path d="M79.08,50.65c-.33-.91-1.03-1.64-1.92-2.01-.44-.18-.9-.28-1.36-.28-1.51,0-2.84.96-3.32,2.39-.21.63-.23,1.29-.05,2.04-3.63,1.63-7.04,2.75-10.41,3.45-2.21.45-4.25.67-6.25.67-.86,0-1.72-.04-2.55-.13-3.6-.36-7.26-1.31-11.19-2.89-.57-.23-1.14-.48-1.69-.72-.13-.06-.26-.11-.39-.17.52-1.62-.12-3.31-1.58-4.14-.52-.3-1.12-.46-1.72-.46-1.03,0-2.01.45-2.68,1.24-1.05,1.23-1.1,3.12-.1,4.39.68.87,1.68,1.36,2.74,1.36.57,0,1.14-.14,1.65-.42.11-.06.16-.06.18-.06.04,0,.1.02.18.05,3.88,1.82,7.54,3.02,11.18,3.67,1.09.2,2.21.33,3.29.46.27.03.54.07.81.1-.58.88-1.15,1.76-1.73,2.64-2.02,3.08-4.12,6.26-6.17,9.4,0,0,0,.01-.01.02-.04,0-.09-.02-.11-.02-.25-.05-.5-.08-.75-.08-1.4,0-2.65.84-3.19,2.15-.64,1.55-.1,3.33,1.28,4.23.59.39,1.27.59,1.97.59.94,0,1.84-.38,2.47-1.04,1.21-1.27,1.34-3.12.31-4.49-.02-.03-.03-.05-.04-.06,0-.01.02-.03.03-.05,2-3.02,4.02-6.1,5.97-9.08.67-1.02,1.34-2.04,2.01-3.06.56.84,1.12,1.67,1.67,2.51,2.08,3.12,4.24,6.35,6.37,9.51.08.12.08.24,0,.36-1.04,1.5-.67,3.62.83,4.72.61.45,1.33.68,2.08.68,1.06,0,2.05-.47,2.72-1.29,1.17-1.44.98-3.6-.41-4.81-.66-.58-1.42-.87-2.27-.87-.29,0-.59.03-.9.1l-8.08-12.1s.09,0,.14-.01c.65-.06,1.26-.12,1.88-.2,4.44-.6,8.92-1.95,13.69-4.14.08-.04.14-.06.17-.06.03,0,.08.02.14.06.55.35,1.18.53,1.83.53,1.32,0,2.51-.74,3.11-1.92.43-.86.49-1.87.16-2.77h0ZM37.41,52.67c-.21.22-.5.34-.8.34-.28,0-.55-.12-.76-.33-.22-.22-.33-.5-.33-.8,0-.61.51-1.1,1.12-1.1v-.47s0,.47,0,.47c.58,0,1.1.5,1.1,1.07,0,.31-.12.6-.34.82h0ZM45.94,75.43c-.21.21-.48.33-.78.33h0c-.61,0-1.11-.5-1.11-1.11,0-.62.49-1.11,1.12-1.11h.01c.58,0,1.08.51,1.09,1.12,0,.29-.11.57-.32.78h0ZM66.89,73.52v-.47h0v.47c.61,0,1.1.5,1.11,1.12,0,.61-.5,1.11-1.11,1.12h-.01c-.28,0-.56-.12-.77-.34-.21-.21-.33-.49-.33-.77,0-.6.52-1.12,1.11-1.13h0ZM75.82,52.96h-.01c-.62,0-1.12-.51-1.11-1.12,0-.59.51-1.12,1.09-1.12h.02c.6.01,1.13.54,1.13,1.13,0,.58-.53,1.11-1.11,1.11h0Z" fill="#fff"/>
            <path d="M55.93,41.49c-3.37,0-6.17,2.82-6.24,6.29-.06,3.38,2.74,6.3,6.12,6.37.05,0,.1,0,.14,0,1.68,0,3.27-.63,4.48-1.78,1.21-1.16,1.89-2.7,1.93-4.35.03-1.73-.59-3.35-1.75-4.57-1.16-1.21-2.76-1.91-4.5-1.96-.06,0-.12,0-.18,0h0ZM59.98,47.86c0,2.12-1.78,3.92-3.9,3.92h-.01c-1.07,0-2.08-.41-2.83-1.16-.75-.75-1.16-1.74-1.16-2.81,0-2.17,1.76-3.94,3.92-3.95v-.47s0,.47,0,.47c2.23,0,3.98,1.75,3.98,3.98Z" fill="#fff"/>
            <path d="M39.56,47.95c1.92-3.02,4.22-5.34,6.83-6.92,2.84-1.71,6.12-2.57,9.76-2.57h.08c7,.02,12.57,3.23,16.55,9.52.6-.47,1.32-.8,2.09-.95-1.65-2.99-4.18-5.67-7.16-7.58-3.45-2.2-7.44-3.37-11.54-3.37-.34,0-.68,0-1.02.02-4.07.19-7.99,1.53-11.33,3.88-2.7,1.9-4.94,4.4-6.35,7.07.56.1,1.11.29,1.61.57.17.1.34.21.49.32Z" fill="#fff"/>
            <path d="M75.82,56.75c-.17,0-.34,0-.51-.03.16,5.39-1.63,10.12-5.33,14.1.05.04.1.09.16.13.56.49.98,1.09,1.26,1.74,2.73-2.77,4.61-6.05,5.57-9.74.57-2.18.79-4.38.65-6.55-.56.22-1.17.34-1.8.34h0Z" fill="#fff"/>
            <path d="M42.22,70.7c-3.61-3.95-5.37-8.63-5.22-13.92-.13.01-.26.02-.39.02-.67,0-1.31-.14-1.91-.39-.18,3.15.33,6.25,1.53,9.22,1.04,2.57,2.56,4.89,4.51,6.88.35-.73.86-1.34,1.48-1.81h0Z" fill="#fff"/>
            <path d="M56.16,76.72h0c-2.05,0-4.14-.35-6.2-1.03-.17.75-.52,1.47-1.04,2.1,2.41.83,4.85,1.25,7.25,1.25s4.69-.4,7.03-1.18c-.53-.61-.89-1.34-1.07-2.1-1.98.63-3.98.95-5.96.95h0Z" fill="#fff"/>
          </g>
        </g>
        <g clip-path="url(#uuid-1425e2e7-d6d3-4d2a-af8b-7c56d1fbe401)">
          <path d="M129.82,96.89l-71.34.41c-21.86,0-39.57-17.72-39.57-39.57h0c0-21.86,17.72-39.57,39.57-39.57h69.91s1.42,78.74,1.42,78.74Z" fill="#419a82" filter="url(#uuid-2f31c7a2-7419-4e53-b9f1-5433137f4fb7)"/>
        </g>
      </g>
    </g>
  </g>
</svg>